# xmcd
#
# Track frame offsets:
#	150
#	21814
#	39074
#	54971
#	73675
#	93153
#	107073
#	127576
#	148898
#	167349
#	181968
#	197696
#	221360
#	245681
#	262764
#
# Disc length: 3732 seconds
# Revision: 1
# Processed by: cddbd v1.5.2PL0 Copyright (c) Steve Scherf et al.
# Submitted via: dBpowerAMP V12.0
#
DISCID=bd0e920f
DTITLE=Various Artist - This One's for Him - A Tribute to Guy Clark, Disc 1
DYEAR=2011
DGENRE=Country
TTITLE0=Rodney Crowell - That Old Time Feeling
TTITLE1=Lyle Lovett - Anyhow I Love You
TTITLE2=Shawn Colvin - All He Wants Is You
TTITLE3=Shawn Camp - Homeless
TTITLE4=Ron Sexsmith - Broken Hearted People
TTITLE5=Rosanne Cash - Better Days
TTITLE6=Willie Nelson - Desperados Waiting for a Train
TTITLE7=Rosie Flores - Baby Took a Limo to Memphis
TTITLE8=Kevin Welch - Magdalene
TTITLE9=Suzy Bogguss - Instant Coffee Blues
TTITLE10=Ray Wylie Hubbard - Homegrown Tomatoes
TTITLE11=John Townes Van Zandt II - Let Him Roll
TTITLE12=Ramblin' Jack Elliott - The Guitar
TTITLE13=James McMurtry - Cold Dog Soup
TTITLE14=Hayes Carll - Worry B Gone
EXTD=
EXTT0=
EXTT1=
EXTT2=
EXTT3=
EXTT4=
EXTT5=
EXTT6=
EXTT7=
EXTT8=
EXTT9=
EXTT10=
EXTT11=
EXTT12=
EXTT13=
EXTT14=
PLAYORDER=
